<svg xmlns="http://www.w3.org/2000/svg" width="114.334" height="15.771" viewBox="0 0 114.334 15.771">
  <g id="그룹_1803" data-name="그룹 1803" transform="translate(-226.413 -506.334)">
    <path id="패스_836" data-name="패스 836" d="M233.438,507.13l-6.982,15.247-.042.093h3l1.628-3.646h7.392l1.605,3.646h3.092l-7.025-15.34Zm3.919,9.211h-5.237l2.608-5.806Z" transform="translate(0 -0.638)" fill="#7f7f7f"/>
    <path id="패스_837" data-name="패스 837" d="M339.933,518.007,331.6,507.724l-.021-.026H328.9v15.227h2.9V512.315l8.606,10.611h2.428V507.7h-2.9Z" transform="translate(-82.399 -1.093)" fill="#7f7f7f"/>
    <path id="패스_838" data-name="패스 838" d="M436.47,509.874a8.214,8.214,0,0,0-2.691-1.6,9.888,9.888,0,0,0-3.428-.576H424.38v15.227h5.971a9.72,9.72,0,0,0,3.428-.587,8.356,8.356,0,0,0,2.69-1.609,7.1,7.1,0,0,0,1.746-2.427,7.646,7.646,0,0,0,0-6.014A7.133,7.133,0,0,0,436.47,509.874Zm-9.192.352h3.059a6.275,6.275,0,0,1,2.241.385,5,5,0,0,1,1.71,1.068,4.863,4.863,0,0,1,1.1,1.613,5.525,5.525,0,0,1,0,4.086,4.753,4.753,0,0,1-1.1,1.6,4.945,4.945,0,0,1-1.71,1.046,6.43,6.43,0,0,1-2.242.374h-3.059Z" transform="translate(-159.169 -1.093)" fill="#7f7f7f"/>
    <path id="패스_839" data-name="패스 839" d="M571.151,516.271a4.156,4.156,0,0,0-1.006-.755,8.06,8.06,0,0,0-1.136-.5,6.348,6.348,0,0,0,.715-.453,3.377,3.377,0,0,0,1.235-1.674,3.769,3.769,0,0,0,.194-1.252,3.41,3.41,0,0,0-1.426-2.882,6.331,6.331,0,0,0-3.834-1.051h-7.156v15.227h7.383a10.059,10.059,0,0,0,2.41-.271,5.735,5.735,0,0,0,1.874-.807,3.638,3.638,0,0,0,1.631-3.143,3.92,3.92,0,0,0-.229-1.39A3.051,3.051,0,0,0,571.151,516.271Zm-3.676-2.687a3.98,3.98,0,0,1-2.125.5h-3.716v-3.9h3.919a3.461,3.461,0,0,1,2.02.5,1.614,1.614,0,0,1,.682,1.389A1.67,1.67,0,0,1,567.475,513.583Zm-1.312,6.86h-4.529v-4.008h4.326a4.388,4.388,0,0,1,2.406.527,1.664,1.664,0,0,1,.771,1.455,1.69,1.69,0,0,1-.781,1.509A4.012,4.012,0,0,1,566.163,520.443Z" transform="translate(-267.182 -1.093)" fill="#7f7f7f"/>
    <path id="패스_840" data-name="패스 840" d="M646.507,507.13l-6.982,15.247-.043.093h3l1.628-3.646H651.5l1.605,3.646H656.2l-7.025-15.34Zm3.919,9.211h-5.237l2.608-5.806Z" transform="translate(-332.397 -0.638)" fill="#7f7f7f"/>
    <path id="패스_841" data-name="패스 841" d="M741.629,513.267v2.444h4.047v2.745a6.039,6.039,0,0,1-1.659.806,6.854,6.854,0,0,1-2.092.311,5.62,5.62,0,0,1-2.177-.406,5.062,5.062,0,0,1-1.673-1.121,4.939,4.939,0,0,1-1.082-1.7,5.915,5.915,0,0,1-.38-2.141,5.452,5.452,0,0,1,1.463-3.743,5,5,0,0,1,1.606-1.142,4.825,4.825,0,0,1,1.994-.416,7.282,7.282,0,0,1,1.354.118,6.348,6.348,0,0,1,1.129.32,5.83,5.83,0,0,1,.983.5,10.053,10.053,0,0,1,.921.665l.053.043,1.853-2.11-.053-.043a10.156,10.156,0,0,0-1.264-.881,8.2,8.2,0,0,0-1.38-.643,9.167,9.167,0,0,0-1.584-.4,11.74,11.74,0,0,0-1.9-.142,8.583,8.583,0,0,0-3.318.632,8.168,8.168,0,0,0-2.611,1.71,7.692,7.692,0,0,0-1.7,2.516,7.821,7.821,0,0,0-.6,3.048,8.119,8.119,0,0,0,.593,3.113,7.391,7.391,0,0,0,1.677,2.495,7.757,7.757,0,0,0,2.612,1.657,9.276,9.276,0,0,0,3.4.6,10.605,10.605,0,0,0,2-.185,10.065,10.065,0,0,0,3.336-1.272,11.951,11.951,0,0,0,1.308-.913l.025-.02v-6.447Z" transform="translate(-407.759 0)" fill="#7f7f7f"/>
  </g>
</svg>
