<svg xmlns="http://www.w3.org/2000/svg" width="145.439" height="20.73" viewBox="0 0 145.439 20.73">
  <g id="그룹_1805" data-name="그룹 1805" transform="translate(-226.413 -506.334)">
    <path id="패스_836" data-name="패스 836" d="M235.234,507.13,226.466,527.2l-.053.122h3.768l2.044-4.8h9.282l2.016,4.8h3.882l-8.821-20.19Zm4.921,12.123h-6.576l3.274-7.641Z" transform="translate(0 -0.597)"/>
    <path id="패스_837" data-name="패스 837" d="M342.754,521.271l-10.468-13.539-.026-.034H328.9v20.048h3.638v-13.97l10.806,13.97h3.049V507.7h-3.639Z" transform="translate(-76.888 -1.024)"/>
    <path id="패스_838" data-name="패스 838" d="M439.561,510.562a10.227,10.227,0,0,0-3.379-2.105,11.9,11.9,0,0,0-4.3-.758h-7.5v20.048h7.5a11.7,11.7,0,0,0,4.3-.773,10.41,10.41,0,0,0,3.378-2.119,9.352,9.352,0,0,0,2.192-3.2,10.213,10.213,0,0,0,.774-3.966,10.11,10.11,0,0,0-.774-3.952A9.389,9.389,0,0,0,439.561,510.562Zm-11.542.463h3.841a7.55,7.55,0,0,1,2.814.507,6.235,6.235,0,0,1,2.148,1.406,6.422,6.422,0,0,1,1.376,2.124,7.6,7.6,0,0,1,0,5.38,6.277,6.277,0,0,1-1.375,2.11,6.168,6.168,0,0,1-2.147,1.377,7.74,7.74,0,0,1-2.815.493h-3.841Z" transform="translate(-148.521 -1.024)"/>
    <path id="패스_839" data-name="패스 839" d="M574.324,518.984a5.248,5.248,0,0,0-1.263-.994,9.9,9.9,0,0,0-1.427-.663,7.951,7.951,0,0,0,.9-.6,4.5,4.5,0,0,0,.919-.943,4.737,4.737,0,0,0,.631-1.261,5.185,5.185,0,0,0,.244-1.649,4.567,4.567,0,0,0-1.791-3.795,7.682,7.682,0,0,0-4.814-1.384h-8.986v20.048h9.27a12.072,12.072,0,0,0,3.026-.357,7.034,7.034,0,0,0,2.353-1.062,4.9,4.9,0,0,0,1.515-1.746,5.185,5.185,0,0,0,.534-2.392,5.387,5.387,0,0,0-.288-1.83A4.049,4.049,0,0,0,574.324,518.984Zm-4.615-3.538a4.814,4.814,0,0,1-2.668.656h-4.666v-5.134H567.3a4.191,4.191,0,0,1,2.536.653,2.162,2.162,0,0,1,.857,1.828A2.231,2.231,0,0,1,569.709,515.446Zm-1.647,9.032h-5.687V519.2h5.432a5.3,5.3,0,0,1,3.021.694,2.222,2.222,0,0,1,.968,1.916,2.257,2.257,0,0,1-.981,1.986A4.853,4.853,0,0,1,568.062,524.478Z" transform="translate(-249.32 -1.024)"/>
    <path id="패스_840" data-name="패스 840" d="M648.3,507.13,639.535,527.2l-.053.122h3.768l2.044-4.8h9.282l2.016,4.8h3.882l-8.821-20.19Zm4.921,12.123h-6.576l3.275-7.641Z" transform="translate(-309.898 -0.597)"/>
    <path id="패스_841" data-name="패스 841" d="M743.693,515.448v3.213h5.082v3.608a7.446,7.446,0,0,1-2.084,1.06,8.253,8.253,0,0,1-2.627.409,6.778,6.778,0,0,1-2.733-.533,6.345,6.345,0,0,1-2.1-1.473,6.54,6.54,0,0,1-1.359-2.232,8.1,8.1,0,0,1-.477-2.815,7.429,7.429,0,0,1,.491-2.7,7.233,7.233,0,0,1,1.346-2.221,6.288,6.288,0,0,1,2.016-1.5,5.829,5.829,0,0,1,2.5-.546,8.748,8.748,0,0,1,1.7.155,7.706,7.706,0,0,1,1.417.421,7.213,7.213,0,0,1,1.234.659,12.68,12.68,0,0,1,1.156.874l.067.057,2.327-2.774-.066-.056A12.77,12.77,0,0,0,750,507.895a10.088,10.088,0,0,0-1.733-.845,11.088,11.088,0,0,0-1.989-.529,14.1,14.1,0,0,0-2.386-.186,10.356,10.356,0,0,0-4.166.831,10.033,10.033,0,0,0-5.412,5.555,10.7,10.7,0,0,0-.759,4.007,11.112,11.112,0,0,0,.744,4.092,9.53,9.53,0,0,0,5.385,5.457,11.182,11.182,0,0,0,4.263.788,12.728,12.728,0,0,0,2.516-.243,12.3,12.3,0,0,0,4.189-1.673,14.989,14.989,0,0,0,1.642-1.2l.031-.026v-8.475Z" transform="translate(-380.476)"/>
  </g>
</svg>
